<svg xmlns="http://www.w3.org/2000/svg" xml:space="preserve" class="logoCorona" viewBox="0 0 652.819 323.263"><path d="m611.466 276.143-17.633-16.663c-.101-.1-.284-.155-.439-.155-.192 0-.367.056-.467.183l-15.582 16.645c-3.259-2.72-22.677-18.255-40.621-20.965.559-.715 1.273-1.593 1.758-2.197 1.712-2.326 2.444-3.405 2.463-3.461a.494.494 0 0 0 .138-.366v-64.268a.517.517 0 0 0-.183-.402c-.944-1.218-3.526-4.761-3.58-6.886 3.223-.586 21.267-4.229 38.012-14.135 2.49.888 20.498 7.205 38.781 13.11v68.937c0 2.289 2.846 8.295 9.851 9.403 3.982.641 6.315.979 7.57 1.162l-20.068 20.058zm-45.181-34.736c0 .267.119.494.394.605.11.036 11.637 4.357 19.812 10.665a.78.78 0 0 0 .695.056c.21-.101.339-.32.339-.586v-63.656c0-.264-.156-.539-.431-.613-8.935-3.13-18.877-6.902-19.691-7.671-.203-.221-.459-.266-.725-.211-.274.119-.394.348-.394.65v60.761zm-36.858 14.897c-13.312 8.093-18.896 16.223-20.645 19.271-1.51-3.104-6.509-11.232-19.72-19.271h6.07c.338 0 .65-.274.65-.649v-67.163c0-.229-.11-.42-.284-.539l-9.284-6.811c-.2-.166-.476-.166-.714-.065l-12.057 6.84a.642.642 0 0 0-.32.575v67.163c0 .375.301.649.64.649h6.052c-13.447 8.166-19.015 16.359-20.68 19.336-1.704-2.977-7.261-11.197-20.69-19.391l6.041.055c.193 0 .357-.063.468-.202.119-.127.2-.265.2-.447v-66.613c0-3.672-3.24-10.829-10.637-12.368l20.79-12.681c2.207 1.292 14.621 8.79 16.644 12.022a.487.487 0 0 0 .294.219c.485.221 5.2 1.594 23.995-10.72l2.921-2.042c2.581 1.573 17.825 10.95 26.219 14.19.184.045.257.265.257.65 0 1.895-2.06 5.821-2.893 7.196a.585.585 0 0 0-.073.301l.054 69.845c0 .375.312.649.669.649h6.033zm-101.877-.377c-6.005 1.191-26.476 6.044-39.522 20.151-2.773-3.076-17.202-17.486-47.322-20.965.357-.659.971-1.592 1.676-2.491 4.055-5.08 5.456-5.894 5.493-5.913a.657.657 0 0 0 .356-.567v-61.247a.61.61 0 0 0-.137-.402c-.998-1.2-3.507-4.697-3.616-6.83 3.809-.33 25.424-2.572 39.458-14.145 3.296 1.474 27.025 11.801 43.047 13.97-1.419 1.42-3.826 4.25-3.826 6.885v63.17c-.001 1.162 1.179 5.923 4.393 8.384zm-54.601-11.654c0 .146.073.312.165.439.174.165 4.092 4.349 22.668 8.021.183.046.402 0 .531-.111a.678.678 0 0 0 .256-.503v-63.563a.607.607 0 0 0-.412-.567c-14.199-5.858-21.88-8.531-22.833-7.873-.21.101-.375.402-.375.613v63.544zm-31.987-66.108c-.916 2.911-3.113 7.499-8.129 9.612-6.052 2.527-14.364.907-24.766-4.796a.927.927 0 0 0-.184-.064c-.127-.027-3.588-.77-5.365.687-.714.558-1.089 1.373-1.089 2.39v69.661c0 .375.293.649.659.649h6.052c-13.448 8.166-18.987 16.359-20.718 19.336-1.666-2.949-7.214-11.17-20.626-19.336l6.032.045c.155 0 .33-.045.458-.155.092-.128.174-.292.174-.458v-66.694c0-3.672-3.223-10.829-10.619-12.368l21.568-13.183c2.161 1.281 13.843 8.349 16.425 11.69-.009.092-.009.11-.009.165 0 .229.155.467.32.595.494.238.631.293 17.092-10.464l2.794-1.959c2.078 2.279 11.765 12.422 19.931 14.647zm-85.729 77.762c-6.006 1.191-26.467 6.044-39.521 20.151-2.775-3.076-17.212-17.486-47.323-20.965.366-.659.953-1.547 1.685-2.491 4.057-5.08 5.438-5.894 5.503-5.913.201-.119.348-.339.348-.567v-61.247a.625.625 0 0 0-.146-.402c-.998-1.2-3.47-4.697-3.617-6.83 3.819-.33 25.434-2.572 39.459-14.145 3.268 1.474 27.035 11.801 43.047 13.97-1.42 1.42-3.836 4.25-3.836 6.885v63.17c-.002 1.162 1.179 5.923 4.401 8.384zm-54.591-11.654c0 .146.064.312.175.439.137.165 4.074 4.349 22.648 8.021a.67.67 0 0 0 .551-.111.65.65 0 0 0 .228-.503v-63.563a.599.599 0 0 0-.402-.567c-14.181-5.858-21.88-8.531-22.833-7.873-.211.101-.366.402-.366.613v63.544zm-4.45-103.185c-9.201 9.859-24.728 10.949-31.154 10.949-2.262 0-3.708-.119-3.708-.119a.562.562 0 0 0-.503.165.585.585 0 0 0-.211.458v122.338c0 .248.119.449.284.577.192.119.43.119.632.045.018-.045 4.184-1.849 6.912-2.736a1.6 1.6 0 0 1 .678-.129c1.144 0 1.839 1.026 1.839 1.987 0 .467-.128 1.108-.806 1.62-2.279 1.821-9.237 7.123-9.302 7.159a.584.584 0 0 0-.255.513v29.396c0 5.513-5.549 9.951-12.351 9.951-6.829 0-12.351-4.438-12.351-9.951 0-5.438 5.502-9.896 12.323-9.896 0 0 .174.018.374.018 2.079 0 2.299-1.034 2.299-1.473v-13.057a.624.624 0 0 0-.302-.539.646.646 0 0 0-.659-.019c-23.428 12.789-54.345 13.164-57.813 13.164h-.156C36.959 301.511 0 268.36 0 219.024c0-24.134 12.826-48.98 35.146-68.177 20.975-18.019 47.836-28.866 71.969-29.059v2.151c-15.5 5.512-25.79 14.529-25.872 14.63-28.023 24.059-33.755 42.974-33.755 63.966 0 3.607.184 7.526.559 11.938 2.627 30.44 34.405 51.077 34.716 51.296.256.138.604.101.797-.109l7.937-7.837a.688.688 0 0 0 .165-.477v-95.56c0-.073 0-.155-.027-.211l-2.545-6.719c37.618-9.787 63.398-35.357 67.803-39.935 10.433 21.937 33.523 25.59 39.299 26.167zM96.43 273.049c0 .228.074.383.247.503.284.274 7.581 6.07 31.833 6.079 6.555 0 13.861-.467 21.651-1.327a.631.631 0 0 0 .586-.633V151.186a.628.628 0 0 0-.302-.559c-.531-.339-13.12-8.111-17.587-8.111-.595 0-1.044.119-1.391.375-.285.211-.614.623-.614 1.337v99.46l-34.186 28.895a.54.54 0 0 0-.237.466zM640.157 282.285s3.681-.879 3.681-4.403c0-2.473-1.684-4.522-5.987-4.522h-7.05v16.066h2.921v-6.729h3.194s2.958 3.26 4.578 6.729h3.689c.001 0-2.544-4.807-5.026-7.141m-2.544-2.079h-3.892v-4.514h3.892c1.391 0 3.057.34 3.057 2.189s-1.63 2.325-3.057 2.325" class="style0"/><path d="M622.195 281.233c0 8.403 6.866 15.188 15.307 15.188 8.46 0 15.317-6.784 15.317-15.188 0-8.367-6.857-15.161-15.317-15.161-8.44 0-15.307 6.794-15.307 15.161m2.875 0c0-6.793 5.538-12.351 12.432-12.351 6.857 0 12.434 5.558 12.434 12.351 0 6.802-5.576 12.35-12.434 12.35-6.894 0-12.432-5.548-12.432-12.35" class="style0"/><path d="M418.459 51.405c-1.611-.477-2.773-.477-3.652.247-3.882 2.93-7.352 4.733-10.108 4.962-2.755.274-4.806 1.153-6.18 2.984l-2.736 2.509c-.266.467-1.383 1.126-5.082 1.593-.677.431-2.737 1.565-1.812 2.719 1.135 1.594 2.288 3.434 3.203 5.219.907 3.882.248 8.011-3.441 11.838-1.4 1.602-3.196 2.068-5.521 1.84-1.145-.238-2.527-.935-2.527-2.289.267-1.364.705-2.472 2.088-3.378 2.316-2.985 2.316-5.476-.211-7.764-1.877-.897-3.708-.897-5.501 0-3.681 1.593-4.13 4.778-1.868 7.764 0 .906-.221 2.014-.678 3.378-.897 1.85-2.49 2.289-4.587 2.051-3.405-1.822-4.999-4.989-4.541-10.482a39.375 39.375 0 0 1 5.228-6.582c-2.051-3.626-5.017-6.372-8.66-8.194-3.69 1.822-6.646 4.568-8.753 8.194 1.841 2.041 3.451 4.092 4.358 6.582.476 3.195.229 6.418-2.252 9.329-2.316 1.62-4.605 2.526-6.885 1.153-1.657-1.602-1.657-3.415-.705-5.429 1.63-2.518 1.364-5.054-.952-7.096-1.803-1.354-4.092-1.116-5.722 0-2.28 1.821-2.014 4.11-.211 7.096.211 1.107 0 2.242-.256 2.911-1.813 3.891-4.541 3.442-7.764 2.087-5.731-5.483-5.493-11.169 1.126-16.634 1.383-1.813.715-3.882-1.822-4.312-4.797-1.382-8.935-3.388-11.7-7.314-2.747-5.667-6.399-5.667-9.146 0-2.774 3.67-7.122 5.933-11.718 7.314-2.527.431-3.232 2.499-2.069 4.074 6.894 5.703 6.894 11.178 1.382 16.872-3.203 1.355-5.934 1.575-7.772-2.087-.477-.897-.477-1.804-.238-3.168 1.83-2.729 2.077-5.219-.238-6.839-1.831-1.116-3.899-1.354-5.959 0-2.271 1.821-2.271 4.578-.669 7.096.669 1.785.669 3.606-.678 5.228-2.535 1.346-4.587.668-6.902-.952-2.536-3.168-2.729-6.134-2.28-9.329.907-2.71 2.527-4.742 4.111-6.82-1.831-3.388-4.798-6.134-8.707-8.176-3.424 2.042-6.426 4.788-8.706 8.176 2.069 2.078 3.899 4.11 5.282 6.82.668 5.237-.906 8.66-4.367 10.281-2.262.439-3.882 0-4.788-2.069-.247-1.145-.467-2.252-.467-3.158 2.289-2.985 1.593-6.171-1.85-7.764-1.831-.897-3.68-.897-5.73 0-2.271 2.288-2.499 4.778-.22 7.764 1.372.906 2.05 2.014 2.05 3.158.221 1.574-1.135 2.271-2.508 2.509-2.297.229-3.891-.439-5.282-1.84-3.909-3.827-4.577-7.956-3.688-12.039.941-1.822 2.077-3.424 3.469-5.008.897-1.163-1.153-2.499-2.069-2.729-3.652-.705-4.806-1.126-4.806-1.593l-2.765-2.747c-1.595-1.593-3.654-2.472-6.18-2.719-2.747-.256-6.399-2.06-10.327-4.989-.907-.705-2.06-.705-3.424-.247-1.163 1.153-1.374 2.288-.916 3.396 14.217 12.506 18.996 27.089 20.16 34.606h166.868c1.137-7.518 5.951-22.101 19.949-34.342.686-1.373.467-2.507-.678-3.661" class="style1"/><path d="M224.957 49.135c4.395 1.135 8.734 2.518 12.387 4.778 2.555.669 5.055 0 7.362-1.354 10.079-7.965 21.55-14.584 35.063-18.658 2.06-.695 3.194 0 2.536 2.042-5.283 4.102-9.183 9.301-11.454 16.149 0 2.042 1.347 2.975 4.34 2.71 2.28-.668 4.12-.458 5.503.485 2.068.448 3.661-.221 5.044-3.442 1.373-8.881 6.865-15.023 14.886-19.326 3.672-.439 5.256 1.153 4.798 4.596-2.976 3.14-5.256 6.573-6.197 10.162.247 3.442 2.077 4.568 5.071 3.652 1.849 0 3.203-1.611 4.366-4.522 2.994-5.475 10.776-5.475 13.733 0 1.153 2.911 2.545 4.522 4.155 4.522 3.196.916 5.035-.21 5.266-3.652-.926-3.589-3.232-7.022-6.207-10.162-.44-3.442 1.152-5.035 4.815-4.596 8.019 4.303 13.503 10.445 14.913 19.326 1.144 3.222 3.003 3.891 4.797 3.442 1.62-.943 3.461-1.153 5.749-.485 2.967.265 4.33-.668 4.33-2.71-2.261-6.849-6.16-12.048-11.451-16.149-.669-2.042.503-2.737 2.535-2.042 13.549 4.074 24.975 10.693 35.082 18.658 2.271 1.354 4.797 2.023 7.306 1.354 3.653-2.261 7.81-3.644 12.368-4.778 2.783-.467 3.671-2.509 3.004-5.704-2.079-2.957-5.054-4.77-9.165-5.228-1.584.229-3.013-.229-4.11-1.382-2.536-4.303-7.132-5.905-13.303-4.962-3.002-3.434-7.131-4.111-11.472-3.882-3.882-4.074-8.274-4.56-12.853-3.626-5.036-3.223-9.586-4.33-13.514-2.279-6.399-2.536-11.91-1.603-16.505 1.346-1.586-3.396-3.883-5.923-7.545-7.306v-4.056h5.959V6.151h-5.959V0h-10.116v6.151h-5.933v5.905h5.933v4.056c-3.652 1.383-6.18 3.909-7.562 7.306-4.815-2.948-10.062-3.882-16.488-1.346-4.119-2.051-8.696-.943-13.513 2.279-4.596-.934-8.945-.448-12.854 3.626-4.587-.229-8.469.467-11.453 3.882-6.207-.943-10.794.659-13.312 4.962-1.136 1.153-2.518 1.61-4.139 1.382-4.118.458-7.076 2.271-9.154 5.228-.675 3.195.249 5.237 2.958 5.704m90.81-29.819c3.205 0 5.723 3.195 5.723 7.278 0 4.129-2.518 7.554-5.723 7.554-3.203 0-5.951-3.425-5.951-7.554-.001-4.082 2.747-7.278 5.951-7.278M232.328 116.269h166.859V100.76H232.328v15.509zm148.091-12.077c2.519 0 4.588 2.042 4.588 4.532 0 2.526-2.069 4.587-4.588 4.587-2.554 0-4.622-2.061-4.622-4.587 0-2.49 2.068-4.532 4.622-4.532m-31.85 0c2.499 0 4.55 2.042 4.55 4.532 0 2.526-2.051 4.587-4.55 4.587-2.555 0-4.642-2.061-4.642-4.587.001-2.49 2.088-4.532 4.642-4.532m-32.802 0c2.527 0 4.568 2.042 4.568 4.532 0 2.526-2.041 4.587-4.568 4.587-2.508 0-4.577-2.061-4.577-4.587-.001-2.49 2.069-4.532 4.577-4.532m-32.803 0c2.535 0 4.615 2.042 4.615 4.532 0 2.526-2.08 4.587-4.615 4.587-2.5 0-4.577-2.061-4.577-4.587 0-2.49 2.077-4.532 4.577-4.532m-32.088 0c2.509 0 4.596 2.042 4.596 4.532 0 2.526-2.087 4.587-4.596 4.587s-4.55-2.061-4.55-4.587c0-2.49 2.041-4.532 4.55-4.532M232.328 93.052h166.859v4.101H232.328z" class="style1"/></svg>